# Blender v2.78 (sub 0) OBJ File: 'sign_middle.blend'
# www.blender.org
mtllib sign.mtl
g Cube.002
v -0.500000 0.500000 0.499000
v 0.500000 0.500000 0.499000
v -0.500000 -0.500000 0.499000
v 0.500000 -0.500000 0.499000
vt 0.9999 0.0001
vt 0.9999 0.9999
vt 0.0001 0.9999
vt 0.0001 0.0001
vn 0.0000 0.0000 -1.0000
usemtl Material
s off
f 3/1/1 1/2/1 2/3/1 4/4/1
g Cube.001
v 0.500000 -0.500000 0.501000
v -0.500000 -0.500000 0.501000
v 0.500000 0.500000 0.501000
v -0.500000 0.500000 0.501000
vt 0.9999 0.0001
vt 0.9999 0.9999
vt 0.0001 0.9999
vt 0.0001 0.0001
vn 0.0000 0.0000 1.0000
usemtl Material
s off
f 5/5/2 7/6/2 8/7/2 6/8/2
